{
  "source": "C:\\Users\\Peter\\Desktop\\stuff\\MIUN\\quantitative_research\\video_compression\\videos\\BVI-HD\\Fountain_1920x1080_50fps.mp4",
  "output": "C:\\Users\\Peter\\Desktop\\stuff\\MIUN\\quantitative_research\\video_compression\\compressed_videos\\BVI-HD\\vp9\\12\\Fountain_1920x1080_50fps_vp9.webm",
  "codec": "vp9",
  "ok": "Input #0, mov,mp4,m4a,3gp,3g2,mj2, from 'C:\\Users\\Peter\\Desktop\\stuff\\MIUN\\quantitative_research\\video_compression\\videos\\BVI-HD\\Fountain_1920x1080_50fps.mp4':\n  Metadata:\n    major_brand     : isom\n    minor_version   : 512\n    compatible_brands: isomiso2avc1mp41\n    encoder         : Lavf54.28.101\n  Duration: 00:00:05.00, start: 0.000000, bitrate: 603457 kb/s\n  Stream #0:0[0x1](und): Video: h264 (High 4:4:4 Predictive) (avc1 / 0x31637661), yuv420p(progressive), 1920x1080, 603453 kb/s, 50 fps, 50 tbr, 50 tbn (default)\n    Metadata:\n      handler_name    : VideoHandler\n      vendor_id       : [0][0][0][0]\n[out#0/webm @ 000001c830029540] Codec AVOption b:a (set bitrate (in bits/s)) has not been used for any stream. The most likely reason is either wrong type (e.g. a video option with no video streams) or that it is a private option of some decoder which was not actually used for any stream.\nStream mapping:\n  Stream #0:0 -> #0:0 (h264 (native) -> vp9 (libvpx-vp9))\nPress [q] to stop, [?] for help\n[libvpx-vp9 @ 000001c8300b68c0] v1.15.2-100-g40561f514\nOutput #0, webm, to 'C:\\Users\\Peter\\Desktop\\stuff\\MIUN\\quantitative_research\\video_compression\\compressed_videos\\BVI-HD\\vp9\\12\\Fountain_1920x1080_50fps_vp9.webm':\n  Metadata:\n    major_brand     : isom\n    minor_version   : 512\n    compatible_brands: isomiso2avc1mp41\n    encoder         : Lavf62.3.100\n  Stream #0:0(und): Video: vp9, yuv420p(tv, progressive), 1920x1080, q=2-31, 12000 kb/s, 50 fps, 1k tbn (default)\n    Metadata:\n      encoder         : Lavc62.11.100 libvpx-vp9\n      handler_name    : VideoHandler\n      vendor_id       : [0][0][0][0]\n    Side data:\n      cpb: bitrate max/min/avg: 0/0/0 buffer size: 12000000 vbv_delay: N/A\nframe=    0 fps=0.0 q=0.0 size=       0KiB time=N/A bitrate=N/A speed=N/A elapsed=0:00:00.51    \nframe=    2 fps=1.4 q=23.0 size=       1KiB time=00:00:00.04 bitrate= 126.8kbits/s speed=0.0276x elapsed=0:00:01.45    \nframe=    5 fps=2.5 q=45.0 size=       1KiB time=00:00:00.10 bitrate=  50.7kbits/s speed=0.0498x elapsed=0:00:02.00    \nframe=    8 fps=3.1 q=42.0 size=       1KiB time=00:00:00.16 bitrate=  31.7kbits/s speed=0.0623x elapsed=0:00:02.56    \nframe=   11 fps=3.5 q=42.0 size=       1KiB time=00:00:00.22 bitrate=  23.1kbits/s speed=0.0709x elapsed=0:00:03.10    \nframe=   13 fps=3.6 q=42.0 size=       1KiB time=00:00:00.26 bitrate=  19.5kbits/s speed=0.0712x elapsed=0:00:03.65    \nframe=   16 fps=3.8 q=41.0 size=       1KiB time=00:00:00.32 bitrate=  15.8kbits/s speed=0.0764x elapsed=0:00:04.18    \nframe=   19 fps=4.0 q=41.0 size=       1KiB time=00:00:00.38 bitrate=  13.3kbits/s speed=0.0805x elapsed=0:00:04.71    \nframe=   22 fps=4.2 q=41.0 size=       1KiB time=00:00:00.44 bitrate=  11.5kbits/s speed=0.084x elapsed=0:00:05.24    \nframe=   23 fps=4.0 q=20.0 size=       1KiB time=00:00:00.46 bitrate=  11.0kbits/s speed=0.0793x elapsed=0:00:05.80    \nframe=   26 fps=4.1 q=41.0 size=       1KiB time=00:00:00.52 bitrate=   9.8kbits/s speed=0.0821x elapsed=0:00:06.33    \nframe=   28 fps=4.1 q=41.0 size=       1KiB time=00:00:00.56 bitrate=   9.1kbits/s speed=0.0814x elapsed=0:00:06.88    \nframe=   31 fps=4.2 q=41.0 size=       1KiB time=00:00:00.62 bitrate=   8.2kbits/s speed=0.0837x elapsed=0:00:07.40    \nframe=   33 fps=4.2 q=41.0 size=       1KiB time=00:00:00.66 bitrate=   7.7kbits/s speed=0.0831x elapsed=0:00:07.93    \nframe=   36 fps=4.3 q=40.0 size=       1KiB time=00:00:00.72 bitrate=   7.0kbits/s speed=0.0851x elapsed=0:00:08.46    \nframe=   39 fps=4.3 q=41.0 size=       1KiB time=00:00:00.76 bitrate=   6.7kbits/s speed=0.0844x elapsed=0:00:09.00    \nframe=   40 fps=4.2 q=29.0 size=       1KiB time=00:00:00.80 bitrate=   6.3kbits/s speed=0.0835x elapsed=0:00:09.58    \nframe=   43 fps=4.2 q=41.0 size=       1KiB time=00:00:00.86 bitrate=   5.9kbits/s speed=0.085x elapsed=0:00:10.12    \nframe=   45 fps=4.2 q=42.0 size=       1KiB time=00:00:00.90 bitrate=   5.6kbits/s speed=0.0844x elapsed=0:00:10.66    \nframe=   47 fps=4.2 q=42.0 size=       1KiB time=00:00:00.94 bitrate=   5.4kbits/s speed=0.0838x elapsed=0:00:11.21    \nframe=   50 fps=4.3 q=42.0 size=       1KiB time=00:00:01.00 bitrate=   5.1kbits/s speed=0.0853x elapsed=0:00:11.72    \nframe=   51 fps=4.2 q=42.0 size=       1KiB time=00:00:01.02 bitrate=   5.0kbits/s speed=0.0832x elapsed=0:00:12.25    \nframe=   53 fps=4.1 q=42.0 size=       1KiB time=00:00:01.06 bitrate=   4.8kbits/s speed=0.0829x elapsed=0:00:12.78    \nframe=   56 fps=4.2 q=42.0 size=       1KiB time=00:00:01.12 bitrate=   4.5kbits/s speed=0.0842x elapsed=0:00:13.30    \nframe=   58 fps=4.2 q=30.0 size=       1KiB time=00:00:01.16 bitrate=   4.4kbits/s speed=0.0838x elapsed=0:00:13.83    \nframe=   61 fps=4.2 q=42.0 size=       1KiB time=00:00:01.22 bitrate=   4.2kbits/s speed=0.0848x elapsed=0:00:14.37    \nframe=   63 fps=4.2 q=42.0 size=       1KiB time=00:00:01.26 bitrate=   4.0kbits/s speed=0.0841x elapsed=0:00:14.97    \nframe=   65 fps=4.2 q=46.0 size=       1KiB time=00:00:01.30 bitrate=   3.9kbits/s speed=0.0837x elapsed=0:00:15.53    \nframe=   68 fps=4.2 q=44.0 size=       1KiB time=00:00:01.36 bitrate=   3.7kbits/s speed=0.0845x elapsed=0:00:16.08    \nframe=   71 fps=4.3 q=44.0 size=       1KiB time=00:00:01.42 bitrate=   3.6kbits/s speed=0.0854x elapsed=0:00:16.63    \nframe=   74 fps=4.3 q=44.0 size=       1KiB time=00:00:01.48 bitrate=   3.4kbits/s speed=0.0862x elapsed=0:00:17.16    \nframe=   77 fps=4.3 q=40.0 size=       1KiB time=00:00:01.54 bitrate=   3.3kbits/s speed=0.087x elapsed=0:00:17.70    \nframe=   79 fps=4.3 q=40.0 size=       1KiB time=00:00:01.58 bitrate=   3.2kbits/s speed=0.0865x elapsed=0:00:18.25    \nframe=   81 fps=4.3 q=29.0 size=       1KiB time=00:00:01.62 bitrate=   3.1kbits/s speed=0.0862x elapsed=0:00:18.78    \nframe=   84 fps=4.3 q=41.0 size=       1KiB time=00:00:01.68 bitrate=   3.0kbits/s speed=0.087x elapsed=0:00:19.31    \nframe=   86 fps=4.3 q=41.0 size=       1KiB time=00:00:01.72 bitrate=   2.9kbits/s speed=0.0867x elapsed=0:00:19.84    \nframe=   89 fps=4.4 q=41.0 size=       1KiB time=00:00:01.78 bitrate=   2.8kbits/s speed=0.0872x elapsed=0:00:20.40    \nframe=   91 fps=4.3 q=41.0 size=       1KiB time=00:00:01.82 bitrate=   2.8kbits/s speed=0.0869x elapsed=0:00:20.93    \nframe=   94 fps=4.4 q=41.0 size=       1KiB time=00:00:01.86 bitrate=   2.7kbits/s speed=0.0867x elapsed=0:00:21.44    \nframe=   96 fps=4.4 q=41.0 size=       1KiB time=00:00:01.92 bitrate=   2.6kbits/s speed=0.087x elapsed=0:00:22.06    \nframe=   98 fps=4.3 q=42.0 size=       1KiB time=00:00:01.96 bitrate=   2.6kbits/s speed=0.0867x elapsed=0:00:22.60    \nframe=  101 fps=4.4 q=42.0 size=       1KiB time=00:00:02.02 bitrate=   2.5kbits/s speed=0.0873x elapsed=0:00:23.14    \nframe=  103 fps=4.3 q=42.0 size=       1KiB time=00:00:02.06 bitrate=   2.5kbits/s speed=0.0869x elapsed=0:00:23.69    \nframe=  105 fps=4.3 q=30.0 size=       1KiB time=00:00:02.10 bitrate=   2.4kbits/s speed=0.0867x elapsed=0:00:24.22    \nframe=  107 fps=4.3 q=43.0 size=       1KiB time=00:00:02.14 bitrate=   2.4kbits/s speed=0.0865x elapsed=0:00:24.75    \nframe=  110 fps=4.4 q=43.0 size=       1KiB time=00:00:02.20 bitrate=   2.3kbits/s speed=0.087x elapsed=0:00:25.28    \nframe=  112 fps=4.3 q=43.0 size=       1KiB time=00:00:02.24 bitrate=   2.3kbits/s speed=0.0866x elapsed=0:00:25.85    \nframe=  114 fps=4.3 q=43.0 size=       1KiB time=00:00:02.28 bitrate=   2.2kbits/s speed=0.0864x elapsed=0:00:26.39    \nframe=  116 fps=4.3 q=44.0 size=       1KiB time=00:00:02.32 bitrate=   2.2kbits/s speed=0.0862x elapsed=0:00:26.90    \nframe=  118 fps=4.3 q=44.0 size=       1KiB time=00:00:02.36 bitrate=   2.1kbits/s speed=0.086x elapsed=0:00:27.45    \nframe=  121 fps=4.3 q=43.0 size=       1KiB time=00:00:02.42 bitrate=   2.1kbits/s speed=0.0865x elapsed=0:00:27.98    \nframe=  123 fps=4.3 q=31.0 size=       1KiB time=00:00:02.46 bitrate=   2.1kbits/s speed=0.0862x elapsed=0:00:28.55    \nframe=  126 fps=4.3 q=43.0 size=       1KiB time=00:00:02.50 bitrate=   2.0kbits/s speed=0.0859x elapsed=0:00:29.09    \nframe=  128 fps=4.3 q=43.0 size=       1KiB time=00:00:02.56 bitrate=   2.0kbits/s speed=0.0862x elapsed=0:00:29.68    \nframe=  131 fps=4.3 q=43.0 size=    3584KiB time=00:00:02.62 bitrate=11206.2kbits/s speed=0.0867x elapsed=0:00:30.22    \nframe=  134 fps=4.4 q=42.0 size=    3584KiB time=00:00:02.68 bitrate=10955.3kbits/s speed=0.087x elapsed=0:00:30.79    \nframe=  136 fps=4.3 q=42.0 size=    3584KiB time=00:00:02.72 bitrate=10794.2kbits/s speed=0.0868x elapsed=0:00:31.35    \nframe=  138 fps=4.3 q=42.0 size=    3584KiB time=00:00:02.76 bitrate=10637.7kbits/s speed=0.0865x elapsed=0:00:31.90    \nframe=  140 fps=4.3 q=42.0 size=    3584KiB time=00:00:02.80 bitrate=10485.8kbits/s speed=0.0864x elapsed=0:00:32.41    \nframe=  143 fps=4.3 q=41.0 size=    3584KiB time=00:00:02.86 bitrate=10265.8kbits/s speed=0.0868x elapsed=0:00:32.94    \nframe=  145 fps=4.3 q=41.0 size=    3584KiB time=00:00:02.90 bitrate=10124.2kbits/s speed=0.0866x elapsed=0:00:33.47    \nframe=  146 fps=4.3 q=41.0 size=    3584KiB time=00:00:02.92 bitrate=10054.8kbits/s speed=0.0859x elapsed=0:00:33.99    \nframe=  149 fps=4.3 q=45.0 size=    3584KiB time=00:00:02.98 bitrate=9852.4kbits/s speed=0.0863x elapsed=0:00:34.51    \nframe=  152 fps=4.3 q=45.0 size=    3584KiB time=00:00:03.04 bitrate=9657.9kbits/s speed=0.0867x elapsed=0:00:35.06    \nframe=  155 fps=4.4 q=45.0 size=    3584KiB time=00:00:03.10 bitrate=9471.0kbits/s speed=0.087x elapsed=0:00:35.61    \nframe=  157 fps=4.3 q=45.0 size=    3584KiB time=00:00:03.14 bitrate=9350.4kbits/s speed=0.0868x elapsed=0:00:36.17    \nframe=  160 fps=4.4 q=41.0 size=    3584KiB time=00:00:03.20 bitrate=9175.0kbits/s speed=0.0872x elapsed=0:00:36.70    \nframe=  162 fps=4.3 q=42.0 size=    3584KiB time=00:00:03.24 bitrate=9061.8kbits/s speed=0.0869x elapsed=0:00:37.29    \nframe=  164 fps=4.3 q=30.0 size=    3584KiB time=00:00:03.28 bitrate=8951.3kbits/s speed=0.0867x elapsed=0:00:37.81    \nframe=  167 fps=4.4 q=41.0 size=    3584KiB time=00:00:03.34 bitrate=8790.5kbits/s speed=0.0871x elapsed=0:00:38.35    \nframe=  169 fps=4.3 q=41.0 size=    3584KiB time=00:00:03.38 bitrate=8686.4kbits/s speed=0.0869x elapsed=0:00:38.90    \nframe=  171 fps=4.3 q=41.0 size=    3584KiB time=00:00:03.42 bitrate=8584.8kbits/s speed=0.0867x elapsed=0:00:39.44    \nframe=  174 fps=4.4 q=40.0 size=    3584KiB time=00:00:03.48 bitrate=8436.8kbits/s speed=0.0871x elapsed=0:00:39.96    \nframe=  176 fps=4.3 q=28.0 size=    3584KiB time=00:00:03.52 bitrate=8340.9kbits/s speed=0.0868x elapsed=0:00:40.54    \nframe=  179 fps=4.4 q=40.0 size=    3584KiB time=00:00:03.58 bitrate=8201.2kbits/s speed=0.0871x elapsed=0:00:41.09    \nframe=  181 fps=4.3 q=40.0 size=    3584KiB time=00:00:03.62 bitrate=8110.5kbits/s speed=0.0869x elapsed=0:00:41.67    \nframe=  184 fps=4.4 q=40.0 size=    3584KiB time=00:00:03.66 bitrate=8021.9kbits/s speed=0.0867x elapsed=0:00:42.22    \nframe=  186 fps=4.4 q=40.0 size=    3584KiB time=00:00:03.72 bitrate=7892.5kbits/s speed=0.087x elapsed=0:00:42.74    \nframe=  188 fps=4.3 q=28.0 size=    3584KiB time=00:00:03.76 bitrate=7808.5kbits/s speed=0.0868x elapsed=0:00:43.30    \nframe=  190 fps=4.3 q=40.0 size=    3584KiB time=00:00:03.80 bitrate=7726.3kbits/s speed=0.0867x elapsed=0:00:43.85    \nframe=  193 fps=4.3 q=41.0 size=    3584KiB time=00:00:03.86 bitrate=7606.3kbits/s speed=0.087x elapsed=0:00:44.38    \nframe=  195 fps=4.3 q=41.0 size=    3584KiB time=00:00:03.90 bitrate=7528.2kbits/s speed=0.0868x elapsed=0:00:44.94    \nframe=  198 fps=4.4 q=41.0 size=    3584KiB time=00:00:03.96 bitrate=7414.2kbits/s speed=0.087x elapsed=0:00:45.51    \nframe=  199 fps=4.3 q=41.0 size=    3584KiB time=00:00:03.98 bitrate=7376.9kbits/s speed=0.0864x elapsed=0:00:46.04    \nframe=  202 fps=4.3 q=41.0 size=    3584KiB time=00:00:04.04 bitrate=7267.4kbits/s speed=0.0867x elapsed=0:00:46.57    \nframe=  205 fps=4.4 q=42.0 size=    3584KiB time=00:00:04.10 bitrate=7161.0kbits/s speed=0.087x elapsed=0:00:47.10    \nframe=  207 fps=4.3 q=41.0 size=    3584KiB time=00:00:04.14 bitrate=7091.8kbits/s speed=0.0868x elapsed=0:00:47.67    \nframe=  210 fps=4.4 q=42.0 size=    3584KiB time=00:00:04.20 bitrate=6990.5kbits/s speed=0.0871x elapsed=0:00:48.21    \nframe=  212 fps=4.3 q=30.0 size=    3584KiB time=00:00:04.24 bitrate=6924.6kbits/s speed=0.087x elapsed=0:00:48.74    \nframe=  215 fps=4.4 q=41.0 size=    3584KiB time=00:00:04.30 bitrate=6827.9kbits/s speed=0.0872x elapsed=0:00:49.28    \nframe=  217 fps=4.4 q=42.0 size=    3584KiB time=00:00:04.34 bitrate=6765.0kbits/s speed=0.0871x elapsed=0:00:49.84    \nframe=  219 fps=4.3 q=39.0 size=    3584KiB time=00:00:04.38 bitrate=6703.2kbits/s speed=0.0869x elapsed=0:00:50.38    \nframe=  222 fps=4.4 q=40.0 size=    3584KiB time=00:00:04.44 bitrate=6612.6kbits/s speed=0.0871x elapsed=0:00:50.95    \nframe=  224 fps=4.4 q=41.0 size=    3584KiB time=00:00:04.48 bitrate=6553.6kbits/s speed=0.087x elapsed=0:00:51.49    \nframe=  226 fps=4.3 q=41.0 size=    3584KiB time=00:00:04.52 bitrate=6495.6kbits/s speed=0.0868x elapsed=0:00:52.06    \nframe=  226 fps=4.3 q=41.0 size=    3584KiB time=00:00:04.52 bitrate=6495.6kbits/s speed=0.0859x elapsed=0:00:52.61    \nframe=  226 fps=4.3 q=41.0 size=    3584KiB time=00:00:04.52 bitrate=6495.6kbits/s speed=0.085x elapsed=0:00:53.16    \nframe=  226 fps=4.2 q=41.0 size=    3584KiB time=00:00:04.52 bitrate=6495.6kbits/s speed=0.0841x elapsed=0:00:53.72    \nframe=  226 fps=4.2 q=41.0 size=    3584KiB time=00:00:04.52 bitrate=6495.6kbits/s speed=0.0833x elapsed=0:00:54.27    \nframe=  226 fps=4.1 q=41.0 size=    3584KiB time=00:00:04.52 bitrate=6495.6kbits/s speed=0.0824x elapsed=0:00:54.84    \nframe=  226 fps=4.1 q=41.0 size=    3584KiB time=00:00:04.52 bitrate=6495.6kbits/s speed=0.0816x elapsed=0:00:55.37    \nframe=  226 fps=4.0 q=41.0 size=    3584KiB time=00:00:04.52 bitrate=6495.6kbits/s speed=0.0808x elapsed=0:00:55.92    \nframe=  226 fps=4.0 q=41.0 size=    3584KiB time=00:00:04.52 bitrate=6495.6kbits/s speed=0.08x elapsed=0:00:56.47    \nframe=  226 fps=4.0 q=41.0 size=    3584KiB time=00:00:04.52 bitrate=6495.6kbits/s speed=0.0793x elapsed=0:00:57.02    \n[out#0/webm @ 000001c830029540] video:7345KiB audio:0KiB subtitle:0KiB other streams:0KiB global headers:0KiB muxing overhead: 0.035381%\nframe=  250 fps=4.3 q=43.0 Lsize=    7347KiB time=00:00:05.00 bitrate=12037.7kbits/s speed=0.0869x elapsed=0:00:57.51    \n",
  "seconds": 57.87162661552429,
  "probe_out": {}
}